<svg width="165" height="86" viewBox="0 0 165 86" fill="none" xmlns="http://www.w3.org/2000/svg">
<path d="M5 78.2426C6.96889 75.8384 10.7235 71.4172 22.688 61.0049C25.6781 58.4027 27.3407 56.7626 31.9176 53.0922C43.7811 43.5781 52.6314 37.2921 54.7896 36.1577C56.8783 35.0598 58.7143 34.3298 60.6083 34.2659C61.5896 34.2328 62.4631 34.0211 63.7271 34.5468C64.5011 34.8686 65.3834 35.8387 65.7967 36.6033C66.6489 38.1798 66.6318 40.4833 66.306 43.0858C66.0025 45.5105 64.9012 49.4447 62.2788 56.7251C58.4126 67.4585 55.3812 74.5839 55.0244 76.3506C54.8546 77.1916 54.8162 77.9398 54.9548 78.6716C55.0935 79.4033 55.4381 80.1011 56.0761 80.5267C56.7141 80.9522 57.6351 81.0843 58.5373 81.0863C59.4396 81.0884 60.2952 80.9562 61.2945 80.659C63.4484 80.0183 66.374 78.2916 83.1484 65.5446C98.2256 54.0871 126.168 31.8964 141.2 20.0053C156.233 8.11416 157.392 7.04061 158.218 6.2357C159.043 5.43079 159.501 4.92705 160.044 5.00863" stroke="#A4CD35" stroke-width="9" stroke-linecap="round" stroke-linejoin="round"/>
</svg>
