<svg width="283" height="101" viewBox="0 0 283 101" fill="none" xmlns="http://www.w3.org/2000/svg">
<g filter="url(#filter0_d_1388_4786)">
<mask id="path-1-outside-1_1388_4786" maskUnits="userSpaceOnUse" x="257.585" y="-1.41421" width="24.7487" height="24.7487" fill="black">
<rect fill="white" x="257.585" y="-1.41421" width="24.7487" height="24.7487"/>
<path d="M262.181 3.18198C261.303 4.06066 261.303 5.48528 262.181 6.36396L265.187 9.36916L264.656 9.89949C264.07 10.4853 264.07 11.435 264.656 12.0208C265.242 12.6066 266.192 12.6066 266.777 12.0208L267.311 11.487L274.025 18.208L276.274 18.3261H276.385C276.891 18.2976 277.297 17.8913 277.325 17.3856V17.2751L277.207 15.026L270.493 8.30505L271.02 7.77817C271.606 7.19239 271.606 6.24264 271.02 5.65685C270.434 5.07107 269.485 5.07107 268.899 5.65685L268.373 6.18304L266.253 4.06034L266.247 4.06586L265.363 3.18198C264.485 2.3033 263.06 2.3033 262.181 3.18198ZM269.786 9.01216L276.229 15.4604L276.327 17.3276L274.462 17.2288L268.018 10.7799L269.786 9.01216Z"/>
</mask>
<path d="M262.181 3.18198C261.303 4.06066 261.303 5.48528 262.181 6.36396L265.187 9.36916L264.656 9.89949C264.07 10.4853 264.07 11.435 264.656 12.0208C265.242 12.6066 266.192 12.6066 266.777 12.0208L267.311 11.487L274.025 18.208L276.274 18.3261H276.385C276.891 18.2976 277.297 17.8913 277.325 17.3856V17.2751L277.207 15.026L270.493 8.30505L271.02 7.77817C271.606 7.19239 271.606 6.24264 271.02 5.65685C270.434 5.07107 269.485 5.07107 268.899 5.65685L268.373 6.18304L266.253 4.06034L266.247 4.06586L265.363 3.18198C264.485 2.3033 263.06 2.3033 262.181 3.18198ZM269.786 9.01216L276.229 15.4604L276.327 17.3276L274.462 17.2288L268.018 10.7799L269.786 9.01216Z" fill="black"/>
<path d="M265.187 9.36916L265.894 8.66206L266.601 9.36916L265.894 10.0763L265.187 9.36916ZM264.656 9.89949L263.949 9.19239L263.949 9.19239L264.656 9.89949ZM264.656 12.0208L263.949 12.7279L263.949 12.7279L264.656 12.0208ZM266.777 12.0208L267.485 12.7279L267.485 12.7279L266.777 12.0208ZM267.311 11.487L266.604 10.7799L267.312 10.0725L268.019 10.7803L267.311 11.487ZM274.025 18.208L273.973 19.2066L273.589 19.1865L273.318 18.9147L274.025 18.208ZM276.274 18.3261V19.3261L276.248 19.3261L276.222 19.3247L276.274 18.3261ZM276.385 18.3261L276.441 19.3245L276.413 19.3261L276.385 19.3261V18.3261ZM277.325 17.3856H278.325V17.4137L278.324 17.4417L277.325 17.3856ZM277.325 17.2751L278.324 17.2227L278.325 17.2489V17.2751H277.325ZM277.207 15.026L277.915 14.3193L278.186 14.5906L278.206 14.9736L277.207 15.026ZM270.493 8.30505L269.786 9.0118L269.079 8.30469L269.786 7.59795L270.493 8.30505ZM271.02 7.77817L271.727 8.48528L271.727 8.48528L271.02 7.77817ZM271.02 5.65685L271.727 4.94975L271.727 4.94975L271.02 5.65685ZM268.899 5.65685L269.606 6.36396L269.606 6.36396L268.899 5.65685ZM268.373 6.18304L269.08 6.89015L268.372 7.59772L267.665 6.88969L268.373 6.18304ZM266.253 4.06034L265.546 3.35323L266.253 2.64567L266.96 3.35369L266.253 4.06034ZM266.247 4.06586L266.954 4.77297L266.247 5.48008L265.54 4.77297L266.247 4.06586ZM269.786 9.01216L269.079 8.30505L269.786 7.59764L270.494 8.30535L269.786 9.01216ZM276.229 15.4604L276.936 14.7536L277.207 15.0249L277.227 15.4079L276.229 15.4604ZM276.327 17.3276L277.326 17.2751L277.384 18.3849L276.274 18.3262L276.327 17.3276ZM274.462 17.2288L274.409 18.2274L274.026 18.2071L273.754 17.9356L274.462 17.2288ZM268.018 10.7799L267.311 11.4867L266.604 10.7796L267.311 10.0728L268.018 10.7799ZM262.181 3.18198L262.888 3.88909C262.4 4.37724 262.4 5.1687 262.888 5.65685L262.181 6.36396L261.474 7.07107C260.205 5.80186 260.205 3.74408 261.474 2.47487L262.181 3.18198ZM262.181 6.36396L262.888 5.65685L265.894 8.66206L265.187 9.36916L264.479 10.0763L261.474 7.07107L262.181 6.36396ZM265.187 9.36916L265.894 10.0763L265.363 10.6066L264.656 9.89949L263.949 9.19239L264.479 8.66206L265.187 9.36916ZM264.656 9.89949L265.363 10.6066C265.168 10.8019 265.168 11.1184 265.363 11.3137L264.656 12.0208L263.949 12.7279C262.973 11.7516 262.973 10.1687 263.949 9.19239L264.656 9.89949ZM264.656 12.0208L265.363 11.3137C265.559 11.509 265.875 11.509 266.07 11.3137L266.777 12.0208L267.485 12.7279C266.508 13.7042 264.925 13.7042 263.949 12.7279L264.656 12.0208ZM266.777 12.0208L266.07 11.3137L266.604 10.7799L267.311 11.487L268.018 12.1941L267.485 12.7279L266.777 12.0208ZM267.311 11.487L268.019 10.7803L274.733 17.5013L274.025 18.208L273.318 18.9147L266.604 12.1938L267.311 11.487ZM274.025 18.208L274.078 17.2094L276.327 17.3275L276.274 18.3261L276.222 19.3247L273.973 19.2066L274.025 18.208ZM276.274 18.3261V17.3261H276.385V18.3261V19.3261H276.274V18.3261ZM276.385 18.3261L276.329 17.3277C276.329 17.3276 276.329 17.3277 276.328 17.3278C276.327 17.328 276.327 17.3282 276.326 17.3284C276.326 17.3286 276.326 17.3285 276.327 17.3277C276.328 17.3269 276.328 17.3264 276.328 17.327C276.328 17.3274 276.327 17.3279 276.327 17.3286C276.327 17.3293 276.327 17.3296 276.327 17.3294L277.325 17.3856L278.324 17.4417C278.267 18.4555 277.455 19.2675 276.441 19.3245L276.385 18.3261ZM277.325 17.3856H276.325V17.2751H277.325H278.325V17.3856H277.325ZM277.325 17.2751L276.327 17.3275L276.209 15.0784L277.207 15.026L278.206 14.9736L278.324 17.2227L277.325 17.2751ZM277.207 15.026L276.5 15.7328L269.786 9.0118L270.493 8.30505L271.201 7.59831L277.915 14.3193L277.207 15.026ZM270.493 8.30505L269.786 7.59795L270.313 7.07107L271.02 7.77817L271.727 8.48528L271.2 9.01216L270.493 8.30505ZM271.02 7.77817L270.313 7.07107C270.508 6.87581 270.508 6.55922 270.313 6.36396L271.02 5.65685L271.727 4.94975C272.704 5.92606 272.704 7.50897 271.727 8.48528L271.02 7.77817ZM271.02 5.65685L270.313 6.36396C270.118 6.1687 269.801 6.1687 269.606 6.36396L268.899 5.65685L268.192 4.94975C269.168 3.97344 270.751 3.97344 271.727 4.94975L271.02 5.65685ZM268.899 5.65685L269.606 6.36396L269.08 6.89015L268.373 6.18304L267.666 5.47593L268.192 4.94975L268.899 5.65685ZM268.373 6.18304L267.665 6.88969L265.545 4.76699L266.253 4.06034L266.96 3.35369L269.08 5.47639L268.373 6.18304ZM266.253 4.06034L266.96 4.76745L266.954 4.77297L266.247 4.06586L265.54 3.35876L265.546 3.35323L266.253 4.06034ZM266.247 4.06586L265.54 4.77297L264.656 3.88909L265.363 3.18198L266.07 2.47487L266.954 3.35876L266.247 4.06586ZM265.363 3.18198L264.656 3.88909C264.168 3.40093 263.377 3.40093 262.888 3.88909L262.181 3.18198L261.474 2.47487C262.743 1.20567 264.801 1.20567 266.07 2.47487L265.363 3.18198ZM269.786 9.01216L270.494 8.30535L276.936 14.7536L276.229 15.4604L275.521 16.1672L269.079 9.71896L269.786 9.01216ZM276.229 15.4604L277.227 15.4079L277.326 17.2751L276.327 17.3276L275.328 17.38L275.23 15.5128L276.229 15.4604ZM276.327 17.3276L276.274 18.3262L274.409 18.2274L274.462 17.2288L274.515 16.2302L276.38 16.329L276.327 17.3276ZM274.462 17.2288L273.754 17.9356L267.311 11.4867L268.018 10.7799L268.726 10.0731L275.169 16.522L274.462 17.2288ZM268.018 10.7799L267.311 10.0728L269.079 8.30505L269.786 9.01216L270.493 9.71927L268.725 11.487L268.018 10.7799Z" fill="white" mask="url(#path-1-outside-1_1388_4786)"/>
<rect x="4" y="29" width="260" height="64" rx="13" fill="white"/>
<rect x="73.5742" y="41" width="16" height="16" rx="3" fill="#388265"/>
<rect x="74.0742" y="41.5" width="15" height="15" rx="2.5" stroke="black" stroke-opacity="0.12"/>
<path d="M96.7862 54L97.1102 51.252H96.0542V50.496H97.2062L97.4582 48.504H96.3182V47.748H97.5422L97.8542 45.288H98.5622L98.2502 47.748H100.038L100.35 45.288H101.07L100.758 47.748H101.838V48.504H100.674L100.422 50.496H101.574V51.252H100.326L100.002 54H99.2822L99.6062 51.252H97.8302L97.4942 54H96.7862ZM97.9142 50.496H99.7022L99.9542 48.504H98.1662L97.9142 50.496ZM105.386 54.156C104.93 54.156 104.526 54.1 104.174 53.988C103.83 53.876 103.526 53.728 103.262 53.544C102.998 53.36 102.77 53.16 102.578 52.944L103.142 52.236C103.398 52.5 103.698 52.736 104.042 52.944C104.394 53.144 104.818 53.244 105.314 53.244C105.666 53.244 105.974 53.18 106.238 53.052C106.51 52.916 106.722 52.728 106.874 52.488C107.026 52.24 107.102 51.948 107.102 51.612C107.102 51.26 107.014 50.952 106.838 50.688C106.67 50.424 106.386 50.22 105.986 50.076C105.586 49.924 105.046 49.848 104.366 49.848V49.008C104.974 49.008 105.454 48.936 105.806 48.792C106.158 48.64 106.41 48.436 106.562 48.18C106.722 47.924 106.802 47.64 106.802 47.328C106.802 46.904 106.67 46.568 106.406 46.32C106.142 46.064 105.778 45.936 105.314 45.936C104.962 45.936 104.63 46.016 104.318 46.176C104.014 46.336 103.738 46.54 103.49 46.788L102.902 46.092C103.238 45.788 103.602 45.54 103.994 45.348C104.394 45.148 104.846 45.048 105.35 45.048C105.846 45.048 106.286 45.136 106.67 45.312C107.062 45.48 107.366 45.728 107.582 46.056C107.806 46.384 107.918 46.78 107.918 47.244C107.918 47.78 107.774 48.224 107.486 48.576C107.198 48.928 106.822 49.188 106.358 49.356V49.416C106.702 49.496 107.014 49.636 107.294 49.836C107.574 50.036 107.798 50.288 107.966 50.592C108.134 50.896 108.218 51.248 108.218 51.648C108.218 52.168 108.09 52.616 107.834 52.992C107.578 53.368 107.238 53.656 106.814 53.856C106.39 54.056 105.914 54.156 105.386 54.156ZM112.247 54.156C111.703 54.156 111.219 54.056 110.795 53.856C110.371 53.656 110.039 53.38 109.799 53.028C109.559 52.676 109.439 52.272 109.439 51.816C109.439 51.424 109.515 51.072 109.667 50.76C109.827 50.44 110.031 50.168 110.279 49.944C110.527 49.712 110.783 49.524 111.047 49.38V49.332C110.727 49.108 110.447 48.832 110.207 48.504C109.975 48.168 109.859 47.768 109.859 47.304C109.859 46.856 109.963 46.468 110.171 46.14C110.387 45.804 110.675 45.544 111.035 45.36C111.403 45.168 111.815 45.072 112.271 45.072C112.775 45.072 113.207 45.172 113.567 45.372C113.927 45.572 114.203 45.844 114.395 46.188C114.587 46.532 114.683 46.932 114.683 47.388C114.683 47.692 114.619 47.98 114.491 48.252C114.371 48.524 114.223 48.768 114.047 48.984C113.871 49.192 113.695 49.368 113.519 49.512V49.572C113.775 49.716 114.015 49.892 114.239 50.1C114.463 50.3 114.643 50.548 114.779 50.844C114.923 51.132 114.995 51.48 114.995 51.888C114.995 52.304 114.879 52.688 114.647 53.04C114.423 53.384 114.103 53.656 113.687 53.856C113.279 54.056 112.799 54.156 112.247 54.156ZM112.847 49.224C113.143 48.96 113.367 48.68 113.519 48.384C113.671 48.08 113.747 47.768 113.747 47.448C113.747 47.152 113.687 46.888 113.567 46.656C113.455 46.424 113.287 46.24 113.063 46.104C112.839 45.96 112.571 45.888 112.259 45.888C111.851 45.888 111.515 46.016 111.251 46.272C110.987 46.528 110.855 46.872 110.855 47.304C110.855 47.648 110.947 47.94 111.131 48.18C111.323 48.412 111.571 48.612 111.875 48.78C112.179 48.94 112.503 49.088 112.847 49.224ZM112.259 53.34C112.603 53.34 112.899 53.276 113.147 53.148C113.403 53.02 113.599 52.844 113.735 52.62C113.879 52.396 113.951 52.14 113.951 51.852C113.951 51.556 113.887 51.304 113.759 51.096C113.631 50.88 113.459 50.692 113.243 50.532C113.035 50.372 112.791 50.228 112.511 50.1C112.231 49.972 111.935 49.848 111.623 49.728C111.271 49.952 110.979 50.236 110.747 50.58C110.523 50.916 110.411 51.296 110.411 51.72C110.411 52.024 110.491 52.3 110.651 52.548C110.811 52.796 111.031 52.992 111.311 53.136C111.599 53.272 111.915 53.34 112.259 53.34ZM118.903 54.156C118.359 54.156 117.875 54.056 117.451 53.856C117.027 53.656 116.695 53.38 116.455 53.028C116.215 52.676 116.095 52.272 116.095 51.816C116.095 51.424 116.171 51.072 116.323 50.76C116.483 50.44 116.687 50.168 116.935 49.944C117.183 49.712 117.439 49.524 117.703 49.38V49.332C117.383 49.108 117.103 48.832 116.863 48.504C116.631 48.168 116.515 47.768 116.515 47.304C116.515 46.856 116.619 46.468 116.827 46.14C117.043 45.804 117.331 45.544 117.691 45.36C118.059 45.168 118.471 45.072 118.927 45.072C119.431 45.072 119.863 45.172 120.223 45.372C120.583 45.572 120.859 45.844 121.051 46.188C121.243 46.532 121.339 46.932 121.339 47.388C121.339 47.692 121.275 47.98 121.147 48.252C121.027 48.524 120.879 48.768 120.703 48.984C120.527 49.192 120.351 49.368 120.175 49.512V49.572C120.431 49.716 120.671 49.892 120.895 50.1C121.119 50.3 121.299 50.548 121.435 50.844C121.579 51.132 121.651 51.48 121.651 51.888C121.651 52.304 121.535 52.688 121.303 53.04C121.079 53.384 120.759 53.656 120.343 53.856C119.935 54.056 119.455 54.156 118.903 54.156ZM119.503 49.224C119.799 48.96 120.023 48.68 120.175 48.384C120.327 48.08 120.403 47.768 120.403 47.448C120.403 47.152 120.343 46.888 120.223 46.656C120.111 46.424 119.943 46.24 119.719 46.104C119.495 45.96 119.227 45.888 118.915 45.888C118.507 45.888 118.171 46.016 117.907 46.272C117.643 46.528 117.511 46.872 117.511 47.304C117.511 47.648 117.603 47.94 117.787 48.18C117.979 48.412 118.227 48.612 118.531 48.78C118.835 48.94 119.159 49.088 119.503 49.224ZM118.915 53.34C119.259 53.34 119.555 53.276 119.803 53.148C120.059 53.02 120.255 52.844 120.391 52.62C120.535 52.396 120.607 52.14 120.607 51.852C120.607 51.556 120.543 51.304 120.415 51.096C120.287 50.88 120.115 50.692 119.899 50.532C119.691 50.372 119.447 50.228 119.167 50.1C118.887 49.972 118.591 49.848 118.279 49.728C117.927 49.952 117.635 50.236 117.403 50.58C117.179 50.916 117.067 51.296 117.067 51.72C117.067 52.024 117.147 52.3 117.307 52.548C117.467 52.796 117.687 52.992 117.967 53.136C118.255 53.272 118.571 53.34 118.915 53.34ZM122.727 54V53.352C123.647 52.544 124.403 51.808 124.995 51.144C125.595 50.48 126.039 49.864 126.327 49.296C126.615 48.72 126.759 48.18 126.759 47.676C126.759 47.34 126.699 47.04 126.579 46.776C126.467 46.512 126.291 46.308 126.051 46.164C125.811 46.012 125.507 45.936 125.139 45.936C124.779 45.936 124.443 46.032 124.131 46.224C123.827 46.416 123.555 46.66 123.315 46.956L122.679 46.332C123.031 45.94 123.411 45.628 123.819 45.396C124.227 45.164 124.711 45.048 125.271 45.048C125.799 45.048 126.251 45.156 126.627 45.372C127.011 45.58 127.307 45.88 127.515 46.272C127.731 46.656 127.839 47.108 127.839 47.628C127.839 48.212 127.691 48.804 127.395 49.404C127.107 50.004 126.703 50.616 126.183 51.24C125.671 51.856 125.071 52.488 124.383 53.136C124.615 53.12 124.855 53.104 125.103 53.088C125.359 53.064 125.599 53.052 125.823 53.052H128.259V54H122.727ZM132.467 54.156C132.051 54.156 131.663 54.068 131.303 53.892C130.943 53.708 130.631 53.436 130.367 53.076C130.103 52.708 129.895 52.252 129.743 51.708C129.599 51.164 129.527 50.528 129.527 49.8C129.527 48.944 129.615 48.212 129.791 47.604C129.967 46.996 130.207 46.504 130.511 46.128C130.815 45.752 131.163 45.48 131.555 45.312C131.947 45.136 132.355 45.048 132.779 45.048C133.235 45.048 133.631 45.132 133.967 45.3C134.303 45.468 134.595 45.684 134.843 45.948L134.219 46.62C134.051 46.412 133.843 46.248 133.595 46.128C133.347 46.008 133.091 45.948 132.827 45.948C132.411 45.948 132.031 46.072 131.687 46.32C131.343 46.56 131.067 46.96 130.859 47.52C130.659 48.08 130.559 48.84 130.559 49.8C130.559 50.552 130.631 51.188 130.775 51.708C130.927 52.228 131.143 52.624 131.423 52.896C131.711 53.16 132.059 53.292 132.467 53.292C132.755 53.292 133.007 53.208 133.223 53.04C133.447 52.872 133.623 52.64 133.751 52.344C133.887 52.04 133.955 51.692 133.955 51.3C133.955 50.9 133.895 50.556 133.775 50.268C133.663 49.972 133.491 49.748 133.259 49.596C133.027 49.436 132.731 49.356 132.371 49.356C132.091 49.356 131.787 49.448 131.459 49.632C131.131 49.808 130.819 50.116 130.523 50.556L130.487 49.692C130.671 49.452 130.875 49.248 131.099 49.08C131.323 48.904 131.559 48.772 131.807 48.684C132.063 48.588 132.311 48.54 132.551 48.54C133.047 48.54 133.475 48.644 133.835 48.852C134.203 49.052 134.487 49.356 134.687 49.764C134.895 50.172 134.999 50.684 134.999 51.3C134.999 51.868 134.883 52.368 134.651 52.8C134.419 53.224 134.111 53.556 133.727 53.796C133.351 54.036 132.931 54.156 132.467 54.156ZM138.656 54.156C138.2 54.156 137.796 54.1 137.444 53.988C137.1 53.876 136.796 53.732 136.532 53.556C136.276 53.38 136.044 53.192 135.836 52.992L136.388 52.272C136.556 52.44 136.74 52.6 136.94 52.752C137.148 52.896 137.384 53.016 137.648 53.112C137.912 53.2 138.212 53.244 138.548 53.244C138.892 53.244 139.204 53.16 139.484 52.992C139.772 52.824 140 52.584 140.168 52.272C140.336 51.96 140.42 51.592 140.42 51.168C140.42 50.544 140.252 50.056 139.916 49.704C139.588 49.344 139.148 49.164 138.596 49.164C138.308 49.164 138.056 49.208 137.84 49.296C137.624 49.384 137.388 49.512 137.132 49.68L136.544 49.308L136.832 45.204H141.104V46.14H137.792L137.564 48.684C137.756 48.572 137.956 48.488 138.164 48.432C138.38 48.368 138.62 48.336 138.884 48.336C139.372 48.336 139.816 48.436 140.216 48.636C140.616 48.828 140.936 49.132 141.176 49.548C141.416 49.964 141.536 50.496 141.536 51.144C141.536 51.784 141.396 52.328 141.116 52.776C140.844 53.224 140.488 53.568 140.048 53.808C139.608 54.04 139.144 54.156 138.656 54.156Z" fill="#7F7F7F"/>
<rect x="12.125" y="37" width="48" height="48" rx="5" fill="#4C8067"/>
<path d="M18.625 37L18.625 85M32.625 37L32.625 85M46.625 37L46.625 85M25.625 37L25.625 85M39.625 37L39.625 85M53.625 37L53.625 85M60.125 43.5L12.125 43.5M60.125 57.5L12.125 57.5M60.125 71.5L12.125 71.5M60.125 50.5L12.125 50.5M60.125 64.5L12.125 64.5M60.125 78.5L12.125 78.5" stroke="black" stroke-opacity="0.12"/>
<rect x="30.5596" y="55" width="12.2899" height="12" rx="3" fill="white"/>
<rect x="33.2046" y="57.5" width="7" height="7" fill="#388265" stroke="black" stroke-linejoin="round"/>
<path d="M99.606 78.156C99.062 78.156 98.554 78.056 98.082 77.856C97.618 77.648 97.214 77.348 96.87 76.956C96.526 76.564 96.258 76.088 96.066 75.528C95.874 74.96 95.778 74.32 95.778 73.608C95.778 72.896 95.874 72.26 96.066 71.7C96.266 71.132 96.542 70.652 96.894 70.26C97.246 69.868 97.658 69.568 98.13 69.36C98.602 69.152 99.118 69.048 99.678 69.048C100.214 69.048 100.686 69.16 101.094 69.384C101.502 69.6 101.834 69.848 102.09 70.128L101.49 70.848C101.258 70.6 100.994 70.4 100.698 70.248C100.402 70.096 100.066 70.02 99.69 70.02C99.138 70.02 98.654 70.164 98.238 70.452C97.822 70.74 97.498 71.152 97.266 71.688C97.034 72.216 96.918 72.844 96.918 73.572C96.918 74.316 97.03 74.96 97.254 75.504C97.478 76.04 97.794 76.456 98.202 76.752C98.61 77.04 99.094 77.184 99.654 77.184C100.07 77.184 100.442 77.096 100.77 76.92C101.106 76.744 101.414 76.5 101.694 76.188L102.306 76.896C101.962 77.296 101.57 77.608 101.13 77.832C100.69 78.048 100.182 78.156 99.606 78.156ZM103.838 78V71.484H104.738L104.846 72.672H104.87C105.094 72.256 105.366 71.928 105.686 71.688C106.014 71.44 106.358 71.316 106.718 71.316C106.87 71.316 106.998 71.328 107.102 71.352C107.214 71.368 107.318 71.404 107.414 71.46L107.21 72.408C107.098 72.376 106.998 72.352 106.91 72.336C106.822 72.312 106.71 72.3 106.574 72.3C106.31 72.3 106.026 72.416 105.722 72.648C105.418 72.872 105.158 73.26 104.942 73.812V78H103.838ZM110.967 78.156C110.383 78.156 109.855 78.02 109.383 77.748C108.911 77.476 108.535 77.088 108.255 76.584C107.983 76.072 107.847 75.46 107.847 74.748C107.847 74.212 107.927 73.736 108.087 73.32C108.247 72.896 108.463 72.536 108.735 72.24C109.015 71.936 109.331 71.708 109.683 71.556C110.035 71.396 110.395 71.316 110.763 71.316C111.323 71.316 111.795 71.44 112.179 71.688C112.563 71.936 112.855 72.292 113.055 72.756C113.263 73.212 113.367 73.752 113.367 74.376C113.367 74.496 113.363 74.608 113.355 74.712C113.347 74.816 113.335 74.912 113.319 75H108.927C108.951 75.464 109.055 75.868 109.239 76.212C109.431 76.548 109.683 76.812 109.995 77.004C110.307 77.188 110.671 77.28 111.087 77.28C111.407 77.28 111.695 77.236 111.951 77.148C112.215 77.052 112.471 76.924 112.719 76.764L113.103 77.496C112.823 77.68 112.507 77.836 112.155 77.964C111.803 78.092 111.407 78.156 110.967 78.156ZM108.915 74.22H112.407C112.407 73.564 112.263 73.064 111.975 72.72C111.695 72.368 111.299 72.192 110.787 72.192C110.483 72.192 110.195 72.272 109.923 72.432C109.659 72.592 109.435 72.82 109.251 73.116C109.075 73.412 108.963 73.78 108.915 74.22ZM116.249 78.156C115.889 78.156 115.565 78.084 115.277 77.94C114.989 77.796 114.761 77.588 114.593 77.316C114.433 77.036 114.353 76.7 114.353 76.308C114.353 75.596 114.669 75.052 115.301 74.676C115.941 74.292 116.957 74.024 118.349 73.872C118.349 73.592 118.309 73.328 118.229 73.08C118.157 72.824 118.025 72.62 117.833 72.468C117.641 72.308 117.365 72.228 117.005 72.228C116.629 72.228 116.273 72.304 115.937 72.456C115.609 72.6 115.313 72.756 115.049 72.924L114.629 72.168C114.829 72.04 115.061 71.912 115.325 71.784C115.589 71.648 115.877 71.536 116.189 71.448C116.501 71.36 116.833 71.316 117.185 71.316C117.713 71.316 118.141 71.428 118.469 71.652C118.805 71.876 119.049 72.188 119.201 72.588C119.361 72.98 119.441 73.448 119.441 73.992V78H118.541L118.445 77.22H118.409C118.105 77.476 117.769 77.696 117.401 77.88C117.041 78.064 116.657 78.156 116.249 78.156ZM116.561 77.268C116.873 77.268 117.169 77.196 117.449 77.052C117.737 76.908 118.037 76.696 118.349 76.416V74.604C117.621 74.684 117.041 74.8 116.609 74.952C116.177 75.096 115.869 75.276 115.685 75.492C115.501 75.7 115.409 75.948 115.409 76.236C115.409 76.612 115.521 76.88 115.745 77.04C115.969 77.192 116.241 77.268 116.561 77.268ZM123.339 78.156C122.883 78.156 122.519 78.068 122.247 77.892C121.975 77.708 121.779 77.452 121.659 77.124C121.547 76.796 121.491 76.416 121.491 75.984V72.372H120.519V71.544L121.551 71.484L121.671 69.648H122.583V71.484H124.359V72.372H122.583V76.02C122.583 76.412 122.655 76.72 122.799 76.944C122.951 77.16 123.215 77.268 123.591 77.268C123.711 77.268 123.839 77.252 123.975 77.22C124.111 77.18 124.231 77.136 124.335 77.088L124.551 77.916C124.367 77.98 124.171 78.036 123.963 78.084C123.755 78.132 123.547 78.156 123.339 78.156ZM128.252 78.156C127.668 78.156 127.14 78.02 126.668 77.748C126.196 77.476 125.82 77.088 125.54 76.584C125.268 76.072 125.132 75.46 125.132 74.748C125.132 74.212 125.212 73.736 125.372 73.32C125.532 72.896 125.748 72.536 126.02 72.24C126.3 71.936 126.616 71.708 126.968 71.556C127.32 71.396 127.68 71.316 128.048 71.316C128.608 71.316 129.08 71.44 129.464 71.688C129.848 71.936 130.14 72.292 130.34 72.756C130.548 73.212 130.652 73.752 130.652 74.376C130.652 74.496 130.648 74.608 130.64 74.712C130.632 74.816 130.62 74.912 130.604 75H126.212C126.236 75.464 126.34 75.868 126.524 76.212C126.716 76.548 126.968 76.812 127.28 77.004C127.592 77.188 127.956 77.28 128.372 77.28C128.692 77.28 128.98 77.236 129.236 77.148C129.5 77.052 129.756 76.924 130.004 76.764L130.388 77.496C130.108 77.68 129.792 77.836 129.44 77.964C129.088 78.092 128.692 78.156 128.252 78.156ZM126.2 74.22H129.692C129.692 73.564 129.548 73.064 129.26 72.72C128.98 72.368 128.584 72.192 128.072 72.192C127.768 72.192 127.48 72.272 127.208 72.432C126.944 72.592 126.72 72.82 126.536 73.116C126.36 73.412 126.248 73.78 126.2 74.22ZM136.344 78L133.992 71.484H135.132L136.356 75.192C136.46 75.512 136.56 75.836 136.656 76.164C136.76 76.484 136.86 76.8 136.956 77.112H137.016C137.12 76.8 137.22 76.484 137.316 76.164C137.42 75.836 137.52 75.512 137.616 75.192L138.852 71.484H139.932L137.628 78H136.344ZM142.393 78.156C142.033 78.156 141.709 78.084 141.421 77.94C141.133 77.796 140.905 77.588 140.737 77.316C140.577 77.036 140.497 76.7 140.497 76.308C140.497 75.596 140.813 75.052 141.445 74.676C142.085 74.292 143.101 74.024 144.493 73.872C144.493 73.592 144.453 73.328 144.373 73.08C144.301 72.824 144.169 72.62 143.977 72.468C143.785 72.308 143.509 72.228 143.149 72.228C142.773 72.228 142.417 72.304 142.081 72.456C141.753 72.6 141.457 72.756 141.193 72.924L140.773 72.168C140.973 72.04 141.205 71.912 141.469 71.784C141.733 71.648 142.021 71.536 142.333 71.448C142.645 71.36 142.977 71.316 143.329 71.316C143.857 71.316 144.285 71.428 144.613 71.652C144.949 71.876 145.193 72.188 145.345 72.588C145.505 72.98 145.585 73.448 145.585 73.992V78H144.685L144.589 77.22H144.553C144.249 77.476 143.913 77.696 143.545 77.88C143.185 78.064 142.801 78.156 142.393 78.156ZM142.705 77.268C143.017 77.268 143.313 77.196 143.593 77.052C143.881 76.908 144.181 76.696 144.493 76.416V74.604C143.765 74.684 143.185 74.8 142.753 74.952C142.321 75.096 142.013 75.276 141.829 75.492C141.645 75.7 141.553 75.948 141.553 76.236C141.553 76.612 141.665 76.88 141.889 77.04C142.113 77.192 142.385 77.268 142.705 77.268ZM147.655 78V71.484H148.555L148.663 72.672H148.687C148.911 72.256 149.183 71.928 149.503 71.688C149.831 71.44 150.175 71.316 150.535 71.316C150.687 71.316 150.815 71.328 150.919 71.352C151.031 71.368 151.135 71.404 151.231 71.46L151.027 72.408C150.915 72.376 150.815 72.352 150.727 72.336C150.639 72.312 150.527 72.3 150.391 72.3C150.127 72.3 149.843 72.416 149.539 72.648C149.235 72.872 148.975 73.26 148.759 73.812V78H147.655ZM152.307 78V71.484H153.411V78H152.307ZM152.859 70.14C152.643 70.14 152.467 70.076 152.331 69.948C152.203 69.812 152.139 69.632 152.139 69.408C152.139 69.192 152.203 69.02 152.331 68.892C152.467 68.764 152.643 68.7 152.859 68.7C153.075 68.7 153.251 68.764 153.387 68.892C153.523 69.02 153.591 69.192 153.591 69.408C153.591 69.632 153.523 69.812 153.387 69.948C153.251 70.076 153.075 70.14 152.859 70.14ZM157.112 78.156C156.752 78.156 156.428 78.084 156.14 77.94C155.852 77.796 155.624 77.588 155.456 77.316C155.296 77.036 155.216 76.7 155.216 76.308C155.216 75.596 155.532 75.052 156.164 74.676C156.804 74.292 157.82 74.024 159.212 73.872C159.212 73.592 159.172 73.328 159.092 73.08C159.02 72.824 158.888 72.62 158.696 72.468C158.504 72.308 158.228 72.228 157.868 72.228C157.492 72.228 157.136 72.304 156.8 72.456C156.472 72.6 156.176 72.756 155.912 72.924L155.492 72.168C155.692 72.04 155.924 71.912 156.188 71.784C156.452 71.648 156.74 71.536 157.052 71.448C157.364 71.36 157.696 71.316 158.048 71.316C158.576 71.316 159.004 71.428 159.332 71.652C159.668 71.876 159.912 72.188 160.064 72.588C160.224 72.98 160.304 73.448 160.304 73.992V78H159.404L159.308 77.22H159.272C158.968 77.476 158.632 77.696 158.264 77.88C157.904 78.064 157.52 78.156 157.112 78.156ZM157.424 77.268C157.736 77.268 158.032 77.196 158.312 77.052C158.6 76.908 158.9 76.696 159.212 76.416V74.604C158.484 74.684 157.904 74.8 157.472 74.952C157.04 75.096 156.732 75.276 156.548 75.492C156.364 75.7 156.272 75.948 156.272 76.236C156.272 76.612 156.384 76.88 156.608 77.04C156.832 77.192 157.104 77.268 157.424 77.268ZM165.242 78.156C164.946 78.156 164.634 78.084 164.306 77.94C163.978 77.796 163.674 77.592 163.394 77.328H163.346L163.25 78H162.374V68.448H163.478V71.064L163.43 72.228C163.726 71.972 164.05 71.756 164.402 71.58C164.754 71.404 165.114 71.316 165.482 71.316C166.042 71.316 166.514 71.456 166.898 71.736C167.282 72.008 167.574 72.392 167.774 72.888C167.974 73.384 168.074 73.968 168.074 74.64C168.074 75.376 167.938 76.008 167.666 76.536C167.402 77.064 167.054 77.468 166.622 77.748C166.198 78.02 165.738 78.156 165.242 78.156ZM165.062 77.232C165.422 77.232 165.742 77.132 166.022 76.932C166.31 76.724 166.534 76.428 166.694 76.044C166.854 75.652 166.934 75.188 166.934 74.652C166.934 74.172 166.874 73.752 166.754 73.392C166.642 73.024 166.462 72.74 166.214 72.54C165.966 72.34 165.63 72.24 165.206 72.24C164.934 72.24 164.654 72.316 164.366 72.468C164.078 72.62 163.782 72.84 163.478 73.128V76.56C163.758 76.808 164.038 76.984 164.318 77.088C164.606 77.184 164.854 77.232 165.062 77.232ZM170.944 78.156C170.672 78.156 170.452 78.1 170.284 77.988C170.116 77.876 169.992 77.712 169.912 77.496C169.832 77.272 169.792 77.008 169.792 76.704V68.448H170.896V76.776C170.896 76.944 170.924 77.064 170.98 77.136C171.044 77.208 171.116 77.244 171.196 77.244C171.228 77.244 171.26 77.244 171.292 77.244C171.324 77.236 171.368 77.228 171.424 77.22L171.58 78.06C171.5 78.084 171.412 78.104 171.316 78.12C171.22 78.144 171.096 78.156 170.944 78.156ZM175.842 78.156C175.258 78.156 174.73 78.02 174.258 77.748C173.786 77.476 173.41 77.088 173.13 76.584C172.858 76.072 172.722 75.46 172.722 74.748C172.722 74.212 172.802 73.736 172.962 73.32C173.122 72.896 173.338 72.536 173.61 72.24C173.89 71.936 174.206 71.708 174.558 71.556C174.91 71.396 175.27 71.316 175.638 71.316C176.198 71.316 176.67 71.44 177.054 71.688C177.438 71.936 177.73 72.292 177.93 72.756C178.138 73.212 178.242 73.752 178.242 74.376C178.242 74.496 178.238 74.608 178.23 74.712C178.222 74.816 178.21 74.912 178.194 75H173.802C173.826 75.464 173.93 75.868 174.114 76.212C174.306 76.548 174.558 76.812 174.87 77.004C175.182 77.188 175.546 77.28 175.962 77.28C176.282 77.28 176.57 77.236 176.826 77.148C177.09 77.052 177.346 76.924 177.594 76.764L177.978 77.496C177.698 77.68 177.382 77.836 177.03 77.964C176.678 78.092 176.282 78.156 175.842 78.156ZM173.79 74.22H177.282C177.282 73.564 177.138 73.064 176.85 72.72C176.57 72.368 176.174 72.192 175.662 72.192C175.358 72.192 175.07 72.272 174.798 72.432C174.534 72.592 174.31 72.82 174.126 73.116C173.95 73.412 173.838 73.78 173.79 74.22Z" fill="black"/>
<path d="M80.0645 77.9127V73.9707H76.3223V72.7467H80.0645V68.8047H81.4103V72.7467H85.171V73.9707H81.4103V77.9127H80.0645Z" fill="black"/>
<rect x="202.095" y="64.5" width="32" height="17" rx="5.5" stroke="#E5E5E5"/>
<path d="M209.169 77.643C208.751 77.643 208.344 77.566 207.948 77.412C207.559 77.2507 207.225 77.0527 206.947 76.818L207.431 76.147C207.695 76.3597 207.966 76.532 208.245 76.664C208.523 76.796 208.842 76.862 209.202 76.862C209.598 76.862 209.891 76.774 210.082 76.598C210.28 76.4147 210.379 76.191 210.379 75.927C210.379 75.7217 210.309 75.553 210.17 75.421C210.038 75.2817 209.865 75.1643 209.653 75.069C209.447 74.9663 209.235 74.8747 209.015 74.794C208.736 74.684 208.461 74.563 208.19 74.431C207.926 74.2917 207.706 74.1157 207.53 73.903C207.361 73.683 207.277 73.4043 207.277 73.067C207.277 72.7443 207.357 72.4583 207.519 72.209C207.68 71.9523 207.915 71.7507 208.223 71.604C208.531 71.45 208.901 71.373 209.334 71.373C209.7 71.373 210.041 71.439 210.357 71.571C210.679 71.703 210.954 71.8643 211.182 72.055L210.698 72.682C210.492 72.5353 210.28 72.4107 210.06 72.308C209.847 72.2053 209.609 72.154 209.345 72.154C208.963 72.154 208.681 72.242 208.498 72.418C208.322 72.5867 208.234 72.7883 208.234 73.023C208.234 73.2063 208.292 73.3603 208.41 73.485C208.534 73.6097 208.696 73.716 208.894 73.804C209.092 73.8847 209.301 73.969 209.521 74.057C209.741 74.1377 209.957 74.2257 210.17 74.321C210.39 74.4163 210.584 74.53 210.753 74.662C210.929 74.794 211.068 74.959 211.171 75.157C211.281 75.3477 211.336 75.586 211.336 75.872C211.336 76.1947 211.251 76.4917 211.083 76.763C210.921 77.0343 210.679 77.2507 210.357 77.412C210.041 77.566 209.645 77.643 209.169 77.643ZM212.752 77.5V68.744H213.764V71.142L213.72 72.374C213.999 72.0953 214.296 71.8607 214.611 71.67C214.927 71.472 215.29 71.373 215.7 71.373C216.331 71.373 216.793 71.5747 217.086 71.978C217.38 72.374 217.526 72.9533 217.526 73.716V77.5H216.525V73.848C216.525 73.2833 216.434 72.8763 216.25 72.627C216.074 72.3777 215.788 72.253 215.392 72.253C215.084 72.253 214.809 72.33 214.567 72.484C214.325 72.638 214.058 72.8653 213.764 73.166V77.5H212.752ZM219.434 77.5V71.527H220.446V77.5H219.434ZM219.94 70.295C219.742 70.295 219.581 70.2363 219.456 70.119C219.339 69.9943 219.28 69.8293 219.28 69.624C219.28 69.426 219.339 69.2683 219.456 69.151C219.581 69.0337 219.742 68.975 219.94 68.975C220.138 68.975 220.299 69.0337 220.424 69.151C220.549 69.2683 220.611 69.426 220.611 69.624C220.611 69.8293 220.549 69.9943 220.424 70.119C220.299 70.2363 220.138 70.295 219.94 70.295ZM222.628 77.5V70.57C222.628 70.1667 222.691 69.8183 222.815 69.525C222.94 69.2317 223.131 69.0043 223.387 68.843C223.644 68.6817 223.97 68.601 224.366 68.601C224.55 68.601 224.726 68.6193 224.894 68.656C225.07 68.6927 225.228 68.7367 225.367 68.788L225.147 69.569C224.927 69.459 224.704 69.404 224.476 69.404C224.19 69.404 223.978 69.503 223.838 69.701C223.699 69.899 223.629 70.1923 223.629 70.581V77.5H222.628ZM221.814 72.341V71.582L222.672 71.527H224.894V72.341H221.814ZM227.91 77.643C227.492 77.643 227.159 77.5623 226.909 77.401C226.66 77.2323 226.48 76.9977 226.37 76.697C226.268 76.3963 226.216 76.048 226.216 75.652V72.341H225.325V71.582L226.271 71.527L226.381 69.844H227.217V71.527H228.845V72.341H227.217V75.685C227.217 76.0443 227.283 76.3267 227.415 76.532C227.555 76.73 227.797 76.829 228.141 76.829C228.251 76.829 228.369 76.8143 228.493 76.785C228.618 76.7483 228.728 76.708 228.823 76.664L229.021 77.423C228.853 77.4817 228.673 77.533 228.482 77.577C228.292 77.621 228.101 77.643 227.91 77.643Z" fill="black"/>
<rect x="237.095" y="64.5" width="17" height="17" rx="5.5" stroke="#E5E5E5"/>
<path d="M241.749 70.3846C241.749 71.1492 242.369 71.7691 243.134 71.7691H244.518V70.3846C244.518 69.6199 243.898 69 243.134 69C242.369 69 241.749 69.6199 241.749 70.3846Z" stroke="black"/>
<path d="M249.44 70.3846C249.44 71.1492 248.82 71.7691 248.055 71.7691H246.671V70.3846C246.671 69.6199 247.291 69 248.055 69C248.82 69 249.44 69.6199 249.44 70.3846Z" stroke="black"/>
<path d="M241.749 75.6135C241.749 74.8488 242.369 74.2289 243.134 74.2289L244.518 74.2289L244.518 75.6135C244.518 76.3782 243.898 76.998 243.134 76.998C242.369 76.998 241.749 76.3782 241.749 75.6135Z" stroke="black"/>
<path d="M249.44 75.6154C249.44 74.8508 248.82 74.2309 248.055 74.2309L246.671 74.2309L246.671 75.6154C246.671 76.3801 247.291 77 248.055 77C248.82 77 249.44 76.3801 249.44 75.6154Z" stroke="black"/>
<path d="M244.518 71.7695V74.231H246.671V71.7695H244.518Z" stroke="black"/>
</g>
<defs>
<filter id="filter0_d_1388_4786" x="0" y="0" width="284.216" height="101" filterUnits="userSpaceOnUse" color-interpolation-filters="sRGB">
<feFlood flood-opacity="0" result="BackgroundImageFix"/>
<feColorMatrix in="SourceAlpha" type="matrix" values="0 0 0 0 0 0 0 0 0 0 0 0 0 0 0 0 0 0 127 0" result="hardAlpha"/>
<feOffset dy="4"/>
<feGaussianBlur stdDeviation="2"/>
<feComposite in2="hardAlpha" operator="out"/>
<feColorMatrix type="matrix" values="0 0 0 0 0 0 0 0 0 0 0 0 0 0 0 0 0 0 0.25 0"/>
<feBlend mode="normal" in2="BackgroundImageFix" result="effect1_dropShadow_1388_4786"/>
<feBlend mode="normal" in="SourceGraphic" in2="effect1_dropShadow_1388_4786" result="shape"/>
</filter>
</defs>
</svg>
