<svg width="283" height="101" viewBox="0 0 283 101" fill="none" xmlns="http://www.w3.org/2000/svg">
<g filter="url(#filter0_d_1388_4971)">
<mask id="path-1-outside-1_1388_4971" maskUnits="userSpaceOnUse" x="0.881977" y="-1.41421" width="24.7487" height="24.7487" fill="black">
<rect fill="white" x="0.881977" y="-1.41421" width="24.7487" height="24.7487"/>
<path d="M21.0345 3.18198C21.9132 4.06066 21.9132 5.48528 21.0345 6.36396L18.0293 9.36916L18.5596 9.89949C19.1454 10.4853 19.1454 11.435 18.5596 12.0208C17.9739 12.6066 17.0241 12.6066 16.4383 12.0208L15.9045 11.487L9.19048 18.208L6.94141 18.3261H6.83093C6.32522 18.2976 5.91886 17.8913 5.89042 17.3856V17.2751L6.0085 15.026L12.7226 8.30505L12.1957 7.77817C11.6099 7.19239 11.6099 6.24264 12.1957 5.65685C12.7815 5.07107 13.7312 5.07107 14.317 5.65685L14.8432 6.18304L16.9631 4.06034L16.9687 4.06586L17.8525 3.18198C18.7312 2.3033 20.1558 2.3033 21.0345 3.18198ZM13.4297 9.01216L6.98699 15.4604L6.88893 17.3276L8.75406 17.2288L15.1974 10.7799L13.4297 9.01216Z"/>
</mask>
<path d="M21.0345 3.18198C21.9132 4.06066 21.9132 5.48528 21.0345 6.36396L18.0293 9.36916L18.5596 9.89949C19.1454 10.4853 19.1454 11.435 18.5596 12.0208C17.9739 12.6066 17.0241 12.6066 16.4383 12.0208L15.9045 11.487L9.19048 18.208L6.94141 18.3261H6.83093C6.32522 18.2976 5.91886 17.8913 5.89042 17.3856V17.2751L6.0085 15.026L12.7226 8.30505L12.1957 7.77817C11.6099 7.19239 11.6099 6.24264 12.1957 5.65685C12.7815 5.07107 13.7312 5.07107 14.317 5.65685L14.8432 6.18304L16.9631 4.06034L16.9687 4.06586L17.8525 3.18198C18.7312 2.3033 20.1558 2.3033 21.0345 3.18198ZM13.4297 9.01216L6.98699 15.4604L6.88893 17.3276L8.75406 17.2288L15.1974 10.7799L13.4297 9.01216Z" fill="black"/>
<path d="M18.0293 9.36916L17.3222 8.66206L16.6151 9.36916L17.3222 10.0763L18.0293 9.36916ZM18.5596 9.89949L19.2668 9.19239L19.2668 9.19239L18.5596 9.89949ZM18.5596 12.0208L19.2668 12.7279L19.2668 12.7279L18.5596 12.0208ZM16.4383 12.0208L15.7312 12.7279L15.7312 12.7279L16.4383 12.0208ZM15.9045 11.487L16.6116 10.7799L15.9042 10.0725L15.1971 10.7803L15.9045 11.487ZM9.19048 18.208L9.24291 19.2066L9.62649 19.1865L9.89795 18.9147L9.19048 18.208ZM6.94141 18.3261L6.94141 19.3261L6.96765 19.3261L6.99384 19.3247L6.94141 18.3261ZM6.83093 18.3261L6.77477 19.3245L6.80283 19.3261L6.83093 19.3261L6.83093 18.3261ZM5.89042 17.3856H4.89042L4.89042 17.4137L4.892 17.4417L5.89042 17.3856ZM5.89042 17.2751L4.89179 17.2227L4.89042 17.2489L4.89042 17.2751H5.89042ZM6.0085 15.026L5.30103 14.3193L5.02998 14.5906L5.00988 14.9736L6.0085 15.026ZM12.7226 8.30505L13.43 9.0118L14.1364 8.30469L13.4297 7.59795L12.7226 8.30505ZM12.1957 7.77817L11.4886 8.48528L11.4886 8.48528L12.1957 7.77817ZM12.1957 5.65685L11.4886 4.94975L11.4886 4.94975L12.1957 5.65685ZM14.317 5.65685L13.6099 6.36396L13.6099 6.36396L14.317 5.65685ZM14.8432 6.18304L14.1361 6.89015L14.8437 7.59772L15.5508 6.88969L14.8432 6.18304ZM16.9631 4.06034L17.6702 3.35323L16.9627 2.64567L16.2556 3.35369L16.9631 4.06034ZM16.9687 4.06586L16.2615 4.77297L16.9687 5.48008L17.6758 4.77297L16.9687 4.06586ZM13.4297 9.01216L14.1368 8.30505L13.4294 7.59764L12.7223 8.30535L13.4297 9.01216ZM6.98699 15.4604L6.27958 14.7536L6.00848 15.0249L5.98836 15.4079L6.98699 15.4604ZM6.88893 17.3276L5.89031 17.2751L5.83203 18.3849L6.9418 18.3262L6.88893 17.3276ZM8.75406 17.2288L8.80693 18.2274L9.1902 18.2071L9.46147 17.9356L8.75406 17.2288ZM15.1974 10.7799L15.9048 11.4867L16.6113 10.7796L15.9045 10.0728L15.1974 10.7799ZM21.0345 3.18198L20.3274 3.88909C20.8156 4.37724 20.8156 5.1687 20.3274 5.65685L21.0345 6.36396L21.7416 7.07107C23.0108 5.80186 23.0108 3.74408 21.7416 2.47487L21.0345 3.18198ZM21.0345 6.36396L20.3274 5.65685L17.3222 8.66206L18.0293 9.36916L18.7364 10.0763L21.7416 7.07107L21.0345 6.36396ZM18.0293 9.36916L17.3222 10.0763L17.8525 10.6066L18.5596 9.89949L19.2668 9.19239L18.7364 8.66206L18.0293 9.36916ZM18.5596 9.89949L17.8525 10.6066C18.0478 10.8019 18.0478 11.1184 17.8525 11.3137L18.5596 12.0208L19.2668 12.7279C20.2431 11.7516 20.2431 10.1687 19.2668 9.19239L18.5596 9.89949ZM18.5596 12.0208L17.8525 11.3137C17.6573 11.509 17.3407 11.509 17.1454 11.3137L16.4383 12.0208L15.7312 12.7279C16.7075 13.7042 18.2904 13.7042 19.2668 12.7279L18.5596 12.0208ZM16.4383 12.0208L17.1454 11.3137L16.6116 10.7799L15.9045 11.487L15.1974 12.1941L15.7312 12.7279L16.4383 12.0208ZM15.9045 11.487L15.1971 10.7803L8.48301 17.5013L9.19048 18.208L9.89795 18.9147L16.612 12.1938L15.9045 11.487ZM9.19048 18.208L9.13805 17.2094L6.88898 17.3275L6.94141 18.3261L6.99384 19.3247L9.24291 19.2066L9.19048 18.208ZM6.94141 18.3261L6.94141 17.3261H6.83093L6.83093 18.3261L6.83093 19.3261H6.94141L6.94141 18.3261ZM6.83093 18.3261L6.88708 17.3277C6.88688 17.3276 6.88725 17.3277 6.88795 17.3278C6.8886 17.328 6.88914 17.3282 6.88949 17.3284C6.89005 17.3286 6.88962 17.3285 6.8888 17.3277C6.88799 17.3269 6.88788 17.3264 6.88814 17.327C6.8883 17.3274 6.8885 17.3279 6.88867 17.3286C6.88884 17.3293 6.88885 17.3296 6.88884 17.3294L5.89042 17.3856L4.892 17.4417C4.94901 18.4555 5.76097 19.2675 6.77477 19.3245L6.83093 18.3261ZM5.89042 17.3856H6.89042V17.2751H5.89042H4.89042V17.3856H5.89042ZM5.89042 17.2751L6.88904 17.3275L7.00713 15.0784L6.0085 15.026L5.00988 14.9736L4.89179 17.2227L5.89042 17.2751ZM6.0085 15.026L6.71597 15.7328L13.43 9.0118L12.7226 8.30505L12.0151 7.59831L5.30103 14.3193L6.0085 15.026ZM12.7226 8.30505L13.4297 7.59795L12.9028 7.07107L12.1957 7.77817L11.4886 8.48528L12.0155 9.01216L12.7226 8.30505ZM12.1957 7.77817L12.9028 7.07107C12.7075 6.87581 12.7075 6.55922 12.9028 6.36396L12.1957 5.65685L11.4886 4.94975C10.5123 5.92606 10.5123 7.50897 11.4886 8.48528L12.1957 7.77817ZM12.1957 5.65685L12.9028 6.36396C13.0981 6.1687 13.4146 6.1687 13.6099 6.36396L14.317 5.65685L15.0241 4.94975C14.0478 3.97344 12.4649 3.97344 11.4886 4.94975L12.1957 5.65685ZM14.317 5.65685L13.6099 6.36396L14.1361 6.89015L14.8432 6.18304L15.5503 5.47593L15.0241 4.94975L14.317 5.65685ZM14.8432 6.18304L15.5508 6.88969L17.6707 4.76699L16.9631 4.06034L16.2556 3.35369L14.1356 5.47639L14.8432 6.18304ZM16.9631 4.06034L16.256 4.76745L16.2615 4.77297L16.9687 4.06586L17.6758 3.35876L17.6702 3.35323L16.9631 4.06034ZM16.9687 4.06586L17.6758 4.77297L18.5596 3.88909L17.8525 3.18198L17.1454 2.47487L16.2615 3.35876L16.9687 4.06586ZM17.8525 3.18198L18.5596 3.88909C19.0478 3.40093 19.8393 3.40093 20.3274 3.88909L21.0345 3.18198L21.7416 2.47487C20.4724 1.20567 18.4146 1.20567 17.1454 2.47487L17.8525 3.18198ZM13.4297 9.01216L12.7223 8.30535L6.27958 14.7536L6.98699 15.4604L7.6944 16.1672L14.1371 9.71896L13.4297 9.01216ZM6.98699 15.4604L5.98836 15.4079L5.89031 17.2751L6.88893 17.3276L7.88756 17.38L7.98561 15.5128L6.98699 15.4604ZM6.88893 17.3276L6.9418 18.3262L8.80693 18.2274L8.75406 17.2288L8.70119 16.2302L6.83606 16.329L6.88893 17.3276ZM8.75406 17.2288L9.46147 17.9356L15.9048 11.4867L15.1974 10.7799L14.49 10.0731L8.04665 16.522L8.75406 17.2288ZM15.1974 10.7799L15.9045 10.0728L14.1368 8.30505L13.4297 9.01216L12.7226 9.71927L14.4903 11.487L15.1974 10.7799Z" fill="white" mask="url(#path-1-outside-1_1388_4971)"/>
<rect x="19" y="29" width="260" height="64" rx="13" fill="white"/>
<rect x="88.5742" y="41" width="16" height="16" rx="3" fill="#2F84F3"/>
<rect x="89.0742" y="41.5" width="15" height="15" rx="2.5" stroke="black" stroke-opacity="0.12"/>
<path d="M111.786 54L112.11 51.252H111.054V50.496H112.206L112.458 48.504H111.318V47.748H112.542L112.854 45.288H113.562L113.25 47.748H115.038L115.35 45.288H116.07L115.758 47.748H116.838V48.504H115.674L115.422 50.496H116.574V51.252H115.326L115.002 54H114.282L114.606 51.252H112.83L112.494 54H111.786ZM112.914 50.496H114.702L114.954 48.504H113.166L112.914 50.496ZM117.758 54V53.352C118.622 52.496 119.354 51.744 119.954 51.096C120.554 50.44 121.01 49.852 121.322 49.332C121.634 48.804 121.79 48.308 121.79 47.844C121.79 47.516 121.73 47.228 121.61 46.98C121.498 46.724 121.322 46.528 121.082 46.392C120.842 46.248 120.538 46.176 120.17 46.176C119.81 46.176 119.474 46.276 119.162 46.476C118.858 46.676 118.586 46.916 118.346 47.196L117.71 46.584C118.062 46.184 118.442 45.868 118.85 45.636C119.258 45.404 119.742 45.288 120.302 45.288C120.83 45.288 121.282 45.392 121.658 45.6C122.042 45.808 122.338 46.1 122.546 46.476C122.762 46.852 122.87 47.292 122.87 47.796C122.87 48.332 122.718 48.876 122.414 49.428C122.11 49.98 121.694 50.56 121.166 51.168C120.638 51.768 120.038 52.424 119.366 53.136C119.59 53.12 119.83 53.104 120.086 53.088C120.342 53.064 120.582 53.052 120.806 53.052H123.29V54H117.758ZM125.099 54V45.204H130.163V46.14H126.203V49.116H129.563V50.052H126.203V54H125.099ZM133.868 54.156C133.324 54.156 132.84 54.056 132.416 53.856C131.992 53.656 131.66 53.38 131.42 53.028C131.18 52.676 131.06 52.272 131.06 51.816C131.06 51.44 131.136 51.108 131.288 50.82C131.448 50.524 131.652 50.268 131.9 50.052C132.148 49.828 132.404 49.644 132.668 49.5V49.452C132.348 49.228 132.068 48.956 131.828 48.636C131.596 48.308 131.48 47.92 131.48 47.472C131.48 47.032 131.584 46.648 131.792 46.32C132.008 45.992 132.296 45.74 132.656 45.564C133.024 45.38 133.436 45.288 133.892 45.288C134.396 45.288 134.828 45.384 135.188 45.576C135.548 45.768 135.824 46.036 136.016 46.38C136.208 46.724 136.304 47.116 136.304 47.556C136.304 47.86 136.24 48.144 136.112 48.408C135.992 48.672 135.84 48.908 135.656 49.116C135.48 49.316 135.308 49.484 135.14 49.62V49.668C135.388 49.82 135.624 49.996 135.848 50.196C136.08 50.388 136.264 50.62 136.4 50.892C136.544 51.164 136.616 51.496 136.616 51.888C136.616 52.304 136.5 52.688 136.268 53.04C136.044 53.384 135.724 53.656 135.308 53.856C134.9 54.056 134.42 54.156 133.868 54.156ZM134.468 49.344C134.756 49.08 134.976 48.808 135.128 48.528C135.288 48.24 135.368 47.936 135.368 47.616C135.368 47.336 135.308 47.084 135.188 46.86C135.076 46.628 134.908 46.444 134.684 46.308C134.46 46.172 134.192 46.104 133.88 46.104C133.472 46.104 133.136 46.228 132.872 46.476C132.608 46.724 132.476 47.056 132.476 47.472C132.476 47.816 132.568 48.1 132.752 48.324C132.944 48.548 133.192 48.74 133.496 48.9C133.8 49.052 134.124 49.2 134.468 49.344ZM133.88 53.34C134.224 53.34 134.52 53.276 134.768 53.148C135.024 53.02 135.22 52.844 135.356 52.62C135.5 52.396 135.572 52.14 135.572 51.852C135.572 51.572 135.508 51.332 135.38 51.132C135.252 50.932 135.08 50.76 134.864 50.616C134.656 50.472 134.412 50.34 134.132 50.22C133.852 50.092 133.556 49.968 133.244 49.848C132.892 50.072 132.6 50.34 132.368 50.652C132.144 50.964 132.032 51.32 132.032 51.72C132.032 52.024 132.112 52.3 132.272 52.548C132.432 52.796 132.652 52.992 132.932 53.136C133.22 53.272 133.536 53.34 133.88 53.34ZM141.244 54V48.252C141.244 48.036 141.252 47.768 141.268 47.448C141.284 47.12 141.296 46.844 141.304 46.62H141.256C141.144 46.82 141.028 47.02 140.908 47.22C140.796 47.412 140.676 47.616 140.548 47.832L138.544 50.76H143.452V51.636H137.404V50.916L141.064 45.444H142.276V54H141.244ZM145.032 54V45.204H150.096V46.14H146.136V49.116H149.496V50.052H146.136V54H145.032ZM153.597 54.156C153.141 54.156 152.737 54.1 152.385 53.988C152.041 53.876 151.737 53.728 151.473 53.544C151.209 53.36 150.981 53.16 150.789 52.944L151.353 52.236C151.609 52.5 151.909 52.736 152.253 52.944C152.605 53.144 153.029 53.244 153.525 53.244C153.877 53.244 154.185 53.18 154.449 53.052C154.721 52.924 154.933 52.744 155.085 52.512C155.237 52.272 155.313 51.992 155.313 51.672C155.313 51.328 155.225 51.032 155.049 50.784C154.881 50.528 154.597 50.332 154.197 50.196C153.797 50.052 153.257 49.98 152.577 49.98V49.128C153.185 49.128 153.665 49.06 154.017 48.924C154.369 48.78 154.621 48.588 154.773 48.348C154.933 48.1 155.013 47.828 155.013 47.532C155.013 47.116 154.881 46.788 154.617 46.548C154.353 46.3 153.989 46.176 153.525 46.176C153.173 46.176 152.841 46.26 152.529 46.428C152.225 46.588 151.949 46.796 151.701 47.052L151.113 46.356C151.449 46.052 151.813 45.8 152.205 45.6C152.605 45.392 153.057 45.288 153.561 45.288C154.057 45.288 154.497 45.372 154.881 45.54C155.273 45.708 155.577 45.956 155.793 46.284C156.017 46.604 156.129 46.992 156.129 47.448C156.129 47.968 155.985 48.396 155.697 48.732C155.409 49.068 155.033 49.32 154.569 49.488V49.536C154.913 49.624 155.225 49.764 155.505 49.956C155.785 50.148 156.009 50.392 156.177 50.688C156.345 50.976 156.429 51.32 156.429 51.72C156.429 52.232 156.301 52.668 156.045 53.028C155.789 53.388 155.449 53.668 155.025 53.868C154.601 54.06 154.125 54.156 153.597 54.156Z" fill="#7F7F7F"/>
<rect x="27.125" y="37" width="48" height="48" rx="5" fill="#2F84F3"/>
<path d="M33.625 37L33.625 85M47.625 37L47.625 85M61.625 37L61.625 85M40.625 37L40.625 85M54.625 37L54.625 85M68.625 37L68.625 85M75.125 43.5L27.125 43.5M75.125 57.5L27.125 57.5M75.125 71.5L27.125 71.5M75.125 50.5L27.125 50.5M75.125 64.5L27.125 64.5M75.125 78.5L27.125 78.5" stroke="black" stroke-opacity="0.12"/>
<rect x="45.5596" y="55" width="12.2899" height="12" rx="3" fill="white"/>
<rect x="48.2041" y="57.5" width="7" height="7" fill="#2F84F3" stroke="black" stroke-linejoin="round"/>
<path d="M114.606 78.156C114.062 78.156 113.554 78.056 113.082 77.856C112.618 77.648 112.214 77.348 111.87 76.956C111.526 76.564 111.258 76.088 111.066 75.528C110.874 74.96 110.778 74.32 110.778 73.608C110.778 72.896 110.874 72.26 111.066 71.7C111.266 71.132 111.542 70.652 111.894 70.26C112.246 69.868 112.658 69.568 113.13 69.36C113.602 69.152 114.118 69.048 114.678 69.048C115.214 69.048 115.686 69.16 116.094 69.384C116.502 69.6 116.834 69.848 117.09 70.128L116.49 70.848C116.258 70.6 115.994 70.4 115.698 70.248C115.402 70.096 115.066 70.02 114.69 70.02C114.138 70.02 113.654 70.164 113.238 70.452C112.822 70.74 112.498 71.152 112.266 71.688C112.034 72.216 111.918 72.844 111.918 73.572C111.918 74.316 112.03 74.96 112.254 75.504C112.478 76.04 112.794 76.456 113.202 76.752C113.61 77.04 114.094 77.184 114.654 77.184C115.07 77.184 115.442 77.096 115.77 76.92C116.106 76.744 116.414 76.5 116.694 76.188L117.306 76.896C116.962 77.296 116.57 77.608 116.13 77.832C115.69 78.048 115.182 78.156 114.606 78.156ZM118.838 78V71.484H119.738L119.846 72.672H119.87C120.094 72.256 120.366 71.928 120.686 71.688C121.014 71.44 121.358 71.316 121.718 71.316C121.87 71.316 121.998 71.328 122.102 71.352C122.214 71.368 122.318 71.404 122.414 71.46L122.21 72.408C122.098 72.376 121.998 72.352 121.91 72.336C121.822 72.312 121.71 72.3 121.574 72.3C121.31 72.3 121.026 72.416 120.722 72.648C120.418 72.872 120.158 73.26 119.942 73.812V78H118.838ZM125.967 78.156C125.383 78.156 124.855 78.02 124.383 77.748C123.911 77.476 123.535 77.088 123.255 76.584C122.983 76.072 122.847 75.46 122.847 74.748C122.847 74.212 122.927 73.736 123.087 73.32C123.247 72.896 123.463 72.536 123.735 72.24C124.015 71.936 124.331 71.708 124.683 71.556C125.035 71.396 125.395 71.316 125.763 71.316C126.323 71.316 126.795 71.44 127.179 71.688C127.563 71.936 127.855 72.292 128.055 72.756C128.263 73.212 128.367 73.752 128.367 74.376C128.367 74.496 128.363 74.608 128.355 74.712C128.347 74.816 128.335 74.912 128.319 75H123.927C123.951 75.464 124.055 75.868 124.239 76.212C124.431 76.548 124.683 76.812 124.995 77.004C125.307 77.188 125.671 77.28 126.087 77.28C126.407 77.28 126.695 77.236 126.951 77.148C127.215 77.052 127.471 76.924 127.719 76.764L128.103 77.496C127.823 77.68 127.507 77.836 127.155 77.964C126.803 78.092 126.407 78.156 125.967 78.156ZM123.915 74.22H127.407C127.407 73.564 127.263 73.064 126.975 72.72C126.695 72.368 126.299 72.192 125.787 72.192C125.483 72.192 125.195 72.272 124.923 72.432C124.659 72.592 124.435 72.82 124.251 73.116C124.075 73.412 123.963 73.78 123.915 74.22ZM131.249 78.156C130.889 78.156 130.565 78.084 130.277 77.94C129.989 77.796 129.761 77.588 129.593 77.316C129.433 77.036 129.353 76.7 129.353 76.308C129.353 75.596 129.669 75.052 130.301 74.676C130.941 74.292 131.957 74.024 133.349 73.872C133.349 73.592 133.309 73.328 133.229 73.08C133.157 72.824 133.025 72.62 132.833 72.468C132.641 72.308 132.365 72.228 132.005 72.228C131.629 72.228 131.273 72.304 130.937 72.456C130.609 72.6 130.313 72.756 130.049 72.924L129.629 72.168C129.829 72.04 130.061 71.912 130.325 71.784C130.589 71.648 130.877 71.536 131.189 71.448C131.501 71.36 131.833 71.316 132.185 71.316C132.713 71.316 133.141 71.428 133.469 71.652C133.805 71.876 134.049 72.188 134.201 72.588C134.361 72.98 134.441 73.448 134.441 73.992V78H133.541L133.445 77.22H133.409C133.105 77.476 132.769 77.696 132.401 77.88C132.041 78.064 131.657 78.156 131.249 78.156ZM131.561 77.268C131.873 77.268 132.169 77.196 132.449 77.052C132.737 76.908 133.037 76.696 133.349 76.416V74.604C132.621 74.684 132.041 74.8 131.609 74.952C131.177 75.096 130.869 75.276 130.685 75.492C130.501 75.7 130.409 75.948 130.409 76.236C130.409 76.612 130.521 76.88 130.745 77.04C130.969 77.192 131.241 77.268 131.561 77.268ZM138.339 78.156C137.883 78.156 137.519 78.068 137.247 77.892C136.975 77.708 136.779 77.452 136.659 77.124C136.547 76.796 136.491 76.416 136.491 75.984V72.372H135.519V71.544L136.551 71.484L136.671 69.648H137.583V71.484H139.359V72.372H137.583V76.02C137.583 76.412 137.655 76.72 137.799 76.944C137.951 77.16 138.215 77.268 138.591 77.268C138.711 77.268 138.839 77.252 138.975 77.22C139.111 77.18 139.231 77.136 139.335 77.088L139.551 77.916C139.367 77.98 139.171 78.036 138.963 78.084C138.755 78.132 138.547 78.156 138.339 78.156ZM143.252 78.156C142.668 78.156 142.14 78.02 141.668 77.748C141.196 77.476 140.82 77.088 140.54 76.584C140.268 76.072 140.132 75.46 140.132 74.748C140.132 74.212 140.212 73.736 140.372 73.32C140.532 72.896 140.748 72.536 141.02 72.24C141.3 71.936 141.616 71.708 141.968 71.556C142.32 71.396 142.68 71.316 143.048 71.316C143.608 71.316 144.08 71.44 144.464 71.688C144.848 71.936 145.14 72.292 145.34 72.756C145.548 73.212 145.652 73.752 145.652 74.376C145.652 74.496 145.648 74.608 145.64 74.712C145.632 74.816 145.62 74.912 145.604 75H141.212C141.236 75.464 141.34 75.868 141.524 76.212C141.716 76.548 141.968 76.812 142.28 77.004C142.592 77.188 142.956 77.28 143.372 77.28C143.692 77.28 143.98 77.236 144.236 77.148C144.5 77.052 144.756 76.924 145.004 76.764L145.388 77.496C145.108 77.68 144.792 77.836 144.44 77.964C144.088 78.092 143.692 78.156 143.252 78.156ZM141.2 74.22H144.692C144.692 73.564 144.548 73.064 144.26 72.72C143.98 72.368 143.584 72.192 143.072 72.192C142.768 72.192 142.48 72.272 142.208 72.432C141.944 72.592 141.72 72.82 141.536 73.116C141.36 73.412 141.248 73.78 141.2 74.22ZM151.344 78L148.992 71.484H150.132L151.356 75.192C151.46 75.512 151.56 75.836 151.656 76.164C151.76 76.484 151.86 76.8 151.956 77.112H152.016C152.12 76.8 152.22 76.484 152.316 76.164C152.42 75.836 152.52 75.512 152.616 75.192L153.852 71.484H154.932L152.628 78H151.344ZM157.393 78.156C157.033 78.156 156.709 78.084 156.421 77.94C156.133 77.796 155.905 77.588 155.737 77.316C155.577 77.036 155.497 76.7 155.497 76.308C155.497 75.596 155.813 75.052 156.445 74.676C157.085 74.292 158.101 74.024 159.493 73.872C159.493 73.592 159.453 73.328 159.373 73.08C159.301 72.824 159.169 72.62 158.977 72.468C158.785 72.308 158.509 72.228 158.149 72.228C157.773 72.228 157.417 72.304 157.081 72.456C156.753 72.6 156.457 72.756 156.193 72.924L155.773 72.168C155.973 72.04 156.205 71.912 156.469 71.784C156.733 71.648 157.021 71.536 157.333 71.448C157.645 71.36 157.977 71.316 158.329 71.316C158.857 71.316 159.285 71.428 159.613 71.652C159.949 71.876 160.193 72.188 160.345 72.588C160.505 72.98 160.585 73.448 160.585 73.992V78H159.685L159.589 77.22H159.553C159.249 77.476 158.913 77.696 158.545 77.88C158.185 78.064 157.801 78.156 157.393 78.156ZM157.705 77.268C158.017 77.268 158.313 77.196 158.593 77.052C158.881 76.908 159.181 76.696 159.493 76.416V74.604C158.765 74.684 158.185 74.8 157.753 74.952C157.321 75.096 157.013 75.276 156.829 75.492C156.645 75.7 156.553 75.948 156.553 76.236C156.553 76.612 156.665 76.88 156.889 77.04C157.113 77.192 157.385 77.268 157.705 77.268ZM162.655 78V71.484H163.555L163.663 72.672H163.687C163.911 72.256 164.183 71.928 164.503 71.688C164.831 71.44 165.175 71.316 165.535 71.316C165.687 71.316 165.815 71.328 165.919 71.352C166.031 71.368 166.135 71.404 166.231 71.46L166.027 72.408C165.915 72.376 165.815 72.352 165.727 72.336C165.639 72.312 165.527 72.3 165.391 72.3C165.127 72.3 164.843 72.416 164.539 72.648C164.235 72.872 163.975 73.26 163.759 73.812V78H162.655ZM167.307 78V71.484H168.411V78H167.307ZM167.859 70.14C167.643 70.14 167.467 70.076 167.331 69.948C167.203 69.812 167.139 69.632 167.139 69.408C167.139 69.192 167.203 69.02 167.331 68.892C167.467 68.764 167.643 68.7 167.859 68.7C168.075 68.7 168.251 68.764 168.387 68.892C168.523 69.02 168.591 69.192 168.591 69.408C168.591 69.632 168.523 69.812 168.387 69.948C168.251 70.076 168.075 70.14 167.859 70.14ZM172.112 78.156C171.752 78.156 171.428 78.084 171.14 77.94C170.852 77.796 170.624 77.588 170.456 77.316C170.296 77.036 170.216 76.7 170.216 76.308C170.216 75.596 170.532 75.052 171.164 74.676C171.804 74.292 172.82 74.024 174.212 73.872C174.212 73.592 174.172 73.328 174.092 73.08C174.02 72.824 173.888 72.62 173.696 72.468C173.504 72.308 173.228 72.228 172.868 72.228C172.492 72.228 172.136 72.304 171.8 72.456C171.472 72.6 171.176 72.756 170.912 72.924L170.492 72.168C170.692 72.04 170.924 71.912 171.188 71.784C171.452 71.648 171.74 71.536 172.052 71.448C172.364 71.36 172.696 71.316 173.048 71.316C173.576 71.316 174.004 71.428 174.332 71.652C174.668 71.876 174.912 72.188 175.064 72.588C175.224 72.98 175.304 73.448 175.304 73.992V78H174.404L174.308 77.22H174.272C173.968 77.476 173.632 77.696 173.264 77.88C172.904 78.064 172.52 78.156 172.112 78.156ZM172.424 77.268C172.736 77.268 173.032 77.196 173.312 77.052C173.6 76.908 173.9 76.696 174.212 76.416V74.604C173.484 74.684 172.904 74.8 172.472 74.952C172.04 75.096 171.732 75.276 171.548 75.492C171.364 75.7 171.272 75.948 171.272 76.236C171.272 76.612 171.384 76.88 171.608 77.04C171.832 77.192 172.104 77.268 172.424 77.268ZM180.242 78.156C179.946 78.156 179.634 78.084 179.306 77.94C178.978 77.796 178.674 77.592 178.394 77.328H178.346L178.25 78H177.374V68.448H178.478V71.064L178.43 72.228C178.726 71.972 179.05 71.756 179.402 71.58C179.754 71.404 180.114 71.316 180.482 71.316C181.042 71.316 181.514 71.456 181.898 71.736C182.282 72.008 182.574 72.392 182.774 72.888C182.974 73.384 183.074 73.968 183.074 74.64C183.074 75.376 182.938 76.008 182.666 76.536C182.402 77.064 182.054 77.468 181.622 77.748C181.198 78.02 180.738 78.156 180.242 78.156ZM180.062 77.232C180.422 77.232 180.742 77.132 181.022 76.932C181.31 76.724 181.534 76.428 181.694 76.044C181.854 75.652 181.934 75.188 181.934 74.652C181.934 74.172 181.874 73.752 181.754 73.392C181.642 73.024 181.462 72.74 181.214 72.54C180.966 72.34 180.63 72.24 180.206 72.24C179.934 72.24 179.654 72.316 179.366 72.468C179.078 72.62 178.782 72.84 178.478 73.128V76.56C178.758 76.808 179.038 76.984 179.318 77.088C179.606 77.184 179.854 77.232 180.062 77.232ZM185.944 78.156C185.672 78.156 185.452 78.1 185.284 77.988C185.116 77.876 184.992 77.712 184.912 77.496C184.832 77.272 184.792 77.008 184.792 76.704V68.448H185.896V76.776C185.896 76.944 185.924 77.064 185.98 77.136C186.044 77.208 186.116 77.244 186.196 77.244C186.228 77.244 186.26 77.244 186.292 77.244C186.324 77.236 186.368 77.228 186.424 77.22L186.58 78.06C186.5 78.084 186.412 78.104 186.316 78.12C186.22 78.144 186.096 78.156 185.944 78.156ZM190.842 78.156C190.258 78.156 189.73 78.02 189.258 77.748C188.786 77.476 188.41 77.088 188.13 76.584C187.858 76.072 187.722 75.46 187.722 74.748C187.722 74.212 187.802 73.736 187.962 73.32C188.122 72.896 188.338 72.536 188.61 72.24C188.89 71.936 189.206 71.708 189.558 71.556C189.91 71.396 190.27 71.316 190.638 71.316C191.198 71.316 191.67 71.44 192.054 71.688C192.438 71.936 192.73 72.292 192.93 72.756C193.138 73.212 193.242 73.752 193.242 74.376C193.242 74.496 193.238 74.608 193.23 74.712C193.222 74.816 193.21 74.912 193.194 75H188.802C188.826 75.464 188.93 75.868 189.114 76.212C189.306 76.548 189.558 76.812 189.87 77.004C190.182 77.188 190.546 77.28 190.962 77.28C191.282 77.28 191.57 77.236 191.826 77.148C192.09 77.052 192.346 76.924 192.594 76.764L192.978 77.496C192.698 77.68 192.382 77.836 192.03 77.964C191.678 78.092 191.282 78.156 190.842 78.156ZM188.79 74.22H192.282C192.282 73.564 192.138 73.064 191.85 72.72C191.57 72.368 191.174 72.192 190.662 72.192C190.358 72.192 190.07 72.272 189.798 72.432C189.534 72.592 189.31 72.82 189.126 73.116C188.95 73.412 188.838 73.78 188.79 74.22Z" fill="black"/>
<path d="M95.0645 77.9127V73.9707H91.3223V72.7467H95.0645V68.8047H96.4103V72.7467H100.171V73.9707H96.4103V77.9127H95.0645Z" fill="black"/>
<rect x="217.095" y="64.5" width="32" height="17" rx="5.5" stroke="#E5E5E5"/>
<path d="M224.169 77.643C223.751 77.643 223.344 77.566 222.948 77.412C222.559 77.2507 222.225 77.0527 221.947 76.818L222.431 76.147C222.695 76.3597 222.966 76.532 223.245 76.664C223.523 76.796 223.842 76.862 224.202 76.862C224.598 76.862 224.891 76.774 225.082 76.598C225.28 76.4147 225.379 76.191 225.379 75.927C225.379 75.7217 225.309 75.553 225.17 75.421C225.038 75.2817 224.865 75.1643 224.653 75.069C224.447 74.9663 224.235 74.8747 224.015 74.794C223.736 74.684 223.461 74.563 223.19 74.431C222.926 74.2917 222.706 74.1157 222.53 73.903C222.361 73.683 222.277 73.4043 222.277 73.067C222.277 72.7443 222.357 72.4583 222.519 72.209C222.68 71.9523 222.915 71.7507 223.223 71.604C223.531 71.45 223.901 71.373 224.334 71.373C224.7 71.373 225.041 71.439 225.357 71.571C225.679 71.703 225.954 71.8643 226.182 72.055L225.698 72.682C225.492 72.5353 225.28 72.4107 225.06 72.308C224.847 72.2053 224.609 72.154 224.345 72.154C223.963 72.154 223.681 72.242 223.498 72.418C223.322 72.5867 223.234 72.7883 223.234 73.023C223.234 73.2063 223.292 73.3603 223.41 73.485C223.534 73.6097 223.696 73.716 223.894 73.804C224.092 73.8847 224.301 73.969 224.521 74.057C224.741 74.1377 224.957 74.2257 225.17 74.321C225.39 74.4163 225.584 74.53 225.753 74.662C225.929 74.794 226.068 74.959 226.171 75.157C226.281 75.3477 226.336 75.586 226.336 75.872C226.336 76.1947 226.251 76.4917 226.083 76.763C225.921 77.0343 225.679 77.2507 225.357 77.412C225.041 77.566 224.645 77.643 224.169 77.643ZM227.752 77.5V68.744H228.764V71.142L228.72 72.374C228.999 72.0953 229.296 71.8607 229.611 71.67C229.927 71.472 230.29 71.373 230.7 71.373C231.331 71.373 231.793 71.5747 232.086 71.978C232.38 72.374 232.526 72.9533 232.526 73.716V77.5H231.525V73.848C231.525 73.2833 231.434 72.8763 231.25 72.627C231.074 72.3777 230.788 72.253 230.392 72.253C230.084 72.253 229.809 72.33 229.567 72.484C229.325 72.638 229.058 72.8653 228.764 73.166V77.5H227.752ZM234.434 77.5V71.527H235.446V77.5H234.434ZM234.94 70.295C234.742 70.295 234.581 70.2363 234.456 70.119C234.339 69.9943 234.28 69.8293 234.28 69.624C234.28 69.426 234.339 69.2683 234.456 69.151C234.581 69.0337 234.742 68.975 234.94 68.975C235.138 68.975 235.299 69.0337 235.424 69.151C235.549 69.2683 235.611 69.426 235.611 69.624C235.611 69.8293 235.549 69.9943 235.424 70.119C235.299 70.2363 235.138 70.295 234.94 70.295ZM237.628 77.5V70.57C237.628 70.1667 237.691 69.8183 237.815 69.525C237.94 69.2317 238.131 69.0043 238.387 68.843C238.644 68.6817 238.97 68.601 239.366 68.601C239.55 68.601 239.726 68.6193 239.894 68.656C240.07 68.6927 240.228 68.7367 240.367 68.788L240.147 69.569C239.927 69.459 239.704 69.404 239.476 69.404C239.19 69.404 238.978 69.503 238.838 69.701C238.699 69.899 238.629 70.1923 238.629 70.581V77.5H237.628ZM236.814 72.341V71.582L237.672 71.527H239.894V72.341H236.814ZM242.91 77.643C242.492 77.643 242.159 77.5623 241.909 77.401C241.66 77.2323 241.48 76.9977 241.37 76.697C241.268 76.3963 241.216 76.048 241.216 75.652V72.341H240.325V71.582L241.271 71.527L241.381 69.844H242.217V71.527H243.845V72.341H242.217V75.685C242.217 76.0443 242.283 76.3267 242.415 76.532C242.555 76.73 242.797 76.829 243.141 76.829C243.251 76.829 243.369 76.8143 243.493 76.785C243.618 76.7483 243.728 76.708 243.823 76.664L244.021 77.423C243.853 77.4817 243.673 77.533 243.482 77.577C243.292 77.621 243.101 77.643 242.91 77.643Z" fill="black"/>
<rect x="252.095" y="64.5" width="17" height="17" rx="5.5" stroke="#E5E5E5"/>
<path d="M256.749 70.3846C256.749 71.1492 257.369 71.7691 258.134 71.7691H259.518V70.3846C259.518 69.6199 258.898 69 258.134 69C257.369 69 256.749 69.6199 256.749 70.3846Z" stroke="black"/>
<path d="M264.44 70.3846C264.44 71.1492 263.821 71.7691 263.056 71.7691H261.671V70.3846C261.671 69.6199 262.291 69 263.056 69C263.821 69 264.44 69.6199 264.44 70.3846Z" stroke="black"/>
<path d="M256.749 75.6135C256.749 74.8488 257.369 74.2289 258.134 74.2289L259.518 74.2289L259.518 75.6135C259.518 76.3782 258.898 76.998 258.134 76.998C257.369 76.998 256.749 76.3782 256.749 75.6135Z" stroke="black"/>
<path d="M264.44 75.6154C264.44 74.8508 263.821 74.2309 263.056 74.2309L261.671 74.2309L261.671 75.6154C261.671 76.3801 262.291 77 263.056 77C263.821 77 264.44 76.3801 264.44 75.6154Z" stroke="black"/>
<path d="M259.518 71.7695V74.231H261.671V71.7695H259.518Z" stroke="black"/>
</g>
<defs>
<filter id="filter0_d_1388_4971" x="-1" y="0" width="284" height="101" filterUnits="userSpaceOnUse" color-interpolation-filters="sRGB">
<feFlood flood-opacity="0" result="BackgroundImageFix"/>
<feColorMatrix in="SourceAlpha" type="matrix" values="0 0 0 0 0 0 0 0 0 0 0 0 0 0 0 0 0 0 127 0" result="hardAlpha"/>
<feOffset dy="4"/>
<feGaussianBlur stdDeviation="2"/>
<feComposite in2="hardAlpha" operator="out"/>
<feColorMatrix type="matrix" values="0 0 0 0 0 0 0 0 0 0 0 0 0 0 0 0 0 0 0.25 0"/>
<feBlend mode="normal" in2="BackgroundImageFix" result="effect1_dropShadow_1388_4971"/>
<feBlend mode="normal" in="SourceGraphic" in2="effect1_dropShadow_1388_4971" result="shape"/>
</filter>
</defs>
</svg>
