<svg width="165" height="86" viewBox="0 0 165 86" fill="none" xmlns="http://www.w3.org/2000/svg">
<path d="M160.336 0.516592L160.712 0.559561L160.94 0.5996C163.274 1.07177 164.852 3.29677 164.494 5.67773C164.241 7.36461 163.082 8.69032 161.585 9.2373C161.522 9.29936 161.449 9.37154 161.359 9.45897C160.321 10.4709 158.917 11.7298 143.992 23.5351C129.924 34.663 104.442 54.8977 88.8506 66.8525L85.8711 69.1279C77.488 75.4983 72.4763 79.1841 69.2686 81.3643C66.2804 83.3951 64.5655 84.3288 62.9082 84.8701L62.5772 84.9736C61.2198 85.3773 59.9269 85.59 58.5274 85.5869C57.4153 85.5844 55.3648 85.4625 53.5791 84.2715C51.6169 82.9627 50.814 80.9917 50.5332 79.5098C50.2557 78.0447 50.3663 76.684 50.6133 75.4609L50.6865 75.1367C50.8776 74.355 51.2114 73.4016 51.5361 72.5098C51.9473 71.3805 52.4965 69.9485 53.1357 68.2861C54.4232 64.9378 56.1305 60.516 58.0449 55.2012L58.9541 52.6357C60.8984 47.0457 61.6363 44.1611 61.8408 42.5273L61.9336 41.6904C62.0085 40.9 62.0299 40.2468 62 39.7129C61.9636 39.0639 61.8607 38.7984 61.8408 38.7519C61.8339 38.7417 61.8241 38.727 61.8106 38.709L61.8066 38.7051C61.7615 38.7074 61.7055 38.7082 61.6367 38.7129C61.5562 38.7184 61.4239 38.7282 61.2686 38.7383L60.7598 38.7646C60.0189 38.7897 59.0889 39.0466 57.5713 39.792L56.8838 40.1416C56.1559 40.5242 53.6816 42.1642 49.6514 45.1143C46.2332 47.6163 41.8809 50.9225 36.9033 54.8721L34.7324 56.6035C30.8088 59.7501 29.1787 61.2824 26.7441 63.4336L25.6426 64.4004C13.8209 74.6884 10.2543 78.9298 8.48145 81.0947C6.9068 83.0174 4.07121 83.2992 2.14845 81.7246C0.226142 80.1499 -0.0558538 77.3152 1.51856 75.3926C3.68342 72.749 7.62636 68.1477 19.7334 57.6113L20.7666 56.7051C23.0998 54.6417 25.0168 52.8596 29.1025 49.583L31.3076 47.8232C36.3686 43.8075 40.8138 40.43 44.335 37.8525C48.2349 34.9978 51.2659 32.9277 52.6963 32.1758L53.5527 31.7383C55.5879 30.7317 57.8836 29.8563 60.457 29.7695L61.0039 29.7207C61.8757 29.6577 63.6308 29.6339 65.4551 30.3926L65.6729 30.4883C66.7478 30.9825 67.5822 31.7179 68.1191 32.2685C68.6572 32.8203 69.1748 33.4744 69.5859 34.166L69.7549 34.4639L69.9004 34.7451C71.1587 37.2872 71.1216 40.2705 70.8857 42.6377L70.7715 43.6455C70.4448 46.255 69.4299 49.926 67.4307 55.6631L66.5127 58.251C64.561 63.6694 62.8201 68.1773 61.5361 71.5166C60.8897 73.198 60.3715 74.5498 59.9932 75.5889C59.8759 75.9108 59.7769 76.1904 59.6943 76.4307C59.7937 76.4054 59.8999 76.3799 60.0117 76.3467L60.1807 76.293C60.6357 76.1365 61.5784 75.7087 64.209 73.9209C67.1961 71.8907 72.0348 68.3393 80.4258 61.9629L83.3887 59.7002C98.894 47.8108 124.29 27.6445 138.409 16.4766C153.548 4.50177 154.463 3.61252 155.076 3.01464C155.326 2.77072 155.942 2.14099 156.519 1.70409C157.144 1.23001 158.489 0.370009 160.336 0.516592Z" fill="#67E2DC"/>
</svg>
